<svg xmlns="http://www.w3.org/2000/svg" xmlns:xlink="http://www.w3.org/1999/xlink" contentStyleType="text/css" data-diagram-type="ACTIVITY" height="1094px" preserveAspectRatio="none" style="width:600px;height:1094px;background:#FFFFFF;" version="1.1" viewBox="0 0 600 1094" width="600px" zoomAndPan="magnify"><title>WordsIK CI/CD Pipeline</title><defs/><g><g class="title" data-source-line="6"><text fill="#000000" font-family="Arial" font-size="22" font-weight="bold" lengthAdjust="spacing" textLength="286.3975" x="155.5582" y="35.4209">WordsIK CI/CD Pipeline</text></g><ellipse cx="298.2524" cy="61.6094" fill="#FFFFFF" rx="10" ry="10" style="stroke:#000000;stroke-width:1;"/><rect fill="#FFFFFF" height="31.6406" rx="12.5" ry="12.5" style="stroke:#000000;stroke-width:1;" width="127.9395" x="234.2827" y="91.6094"/><text fill="#000000" font-family="Arial" font-size="10" lengthAdjust="spacing" textLength="107.9395" x="244.2827" y="110.8916">Developer creates PR</text><rect fill="#FFFFFF" height="31.6406" rx="12.5" ry="12.5" style="stroke:#000000;stroke-width:1;" width="143.9844" x="226.2603" y="143.25"/><text fill="#000000" font-family="Arial" font-size="10" lengthAdjust="spacing" textLength="123.9844" x="236.2603" y="162.5322">GitHub Actions triggered</text><rect fill="#000000" height="6" rx="2.5" ry="2.5" style="stroke:#000000;stroke-width:1;" width="588.5139" x="6" y="194.8906"/><rect fill="#FFFFFF" height="31.6406" rx="12.5" ry="12.5" style="stroke:#000000;stroke-width:1;" width="110.3564" x="18" y="254.2109"/><text fill="#000000" font-family="Arial" font-size="10" lengthAdjust="spacing" textLength="90.3564" x="28" y="273.4932">Security Scanning</text><rect fill="#FFFFFF" height="31.6406" rx="12.5" ry="12.5" style="stroke:#000000;stroke-width:1;" width="86.8604" x="29.748" y="320.8516"/><text fill="#000000" font-family="Arial" font-size="10" lengthAdjust="spacing" textLength="66.8604" x="39.748" y="340.1338">Gitleaks scan</text><rect fill="#FFFFFF" height="31.6406" rx="12.5" ry="12.5" style="stroke:#000000;stroke-width:1;" width="98.8672" x="23.7446" y="387.4922"/><text fill="#000000" font-family="Arial" font-size="10" lengthAdjust="spacing" textLength="78.8672" x="33.7446" y="406.7744">TruffleHog scan</text><rect fill="#FFFFFF" height="31.6406" rx="12.5" ry="12.5" style="stroke:#000000;stroke-width:1;" width="106.8701" x="19.7432" y="454.1328"/><text fill="#000000" font-family="Arial" font-size="10" lengthAdjust="spacing" textLength="86.8701" x="29.7432" y="473.415">Pattern matching</text><rect fill="#FFFFFF" height="31.6406" rx="12.5" ry="12.5" style="stroke:#000000;stroke-width:1;" width="84.5117" x="163.7275" y="254.2109"/><text fill="#000000" font-family="Arial" font-size="10" lengthAdjust="spacing" textLength="64.5117" x="173.7275" y="273.4932">Code Quality</text><rect fill="#FFFFFF" height="31.6406" rx="12.5" ry="12.5" style="stroke:#000000;stroke-width:1;" width="135.2539" x="138.3564" y="320.8516"/><text fill="#000000" font-family="Arial" font-size="10" lengthAdjust="spacing" textLength="115.2539" x="148.3564" y="340.1338">TypeScript compilation</text><rect fill="#FFFFFF" height="31.6406" rx="12.5" ry="12.5" style="stroke:#000000;stroke-width:1;" width="88.9404" x="161.5132" y="387.4922"/><text fill="#000000" font-family="Arial" font-size="10" lengthAdjust="spacing" textLength="68.9404" x="171.5132" y="406.7744">ESLint checks</text><rect fill="#FFFFFF" height="31.6406" rx="12.5" ry="12.5" style="stroke:#000000;stroke-width:1;" width="88.3789" x="161.7939" y="454.1328"/><text fill="#000000" font-family="Arial" font-size="10" lengthAdjust="spacing" textLength="68.3789" x="171.7939" y="473.415">Jest unit tests</text><rect fill="#FFFFFF" height="31.6406" rx="12.5" ry="12.5" style="stroke:#000000;stroke-width:1;" width="113.1055" x="312.4697" y="220.8906"/><text fill="#000000" font-family="Arial" font-size="10" lengthAdjust="spacing" textLength="93.1055" x="322.4697" y="240.1729">Content Validation</text><rect fill="#FFFFFF" height="31.6406" rx="12.5" ry="12.5" style="stroke:#000000;stroke-width:1;" width="133.6719" x="302.1865" y="287.5313"/><text fill="#000000" font-family="Arial" font-size="10" lengthAdjust="spacing" textLength="113.6719" x="312.1865" y="306.8135">JSON syntax validation</text><rect fill="#FFFFFF" height="31.6406" rx="12.5" ry="12.5" style="stroke:#000000;stroke-width:1;" width="134.8242" x="301.6104" y="354.1719"/><text fill="#000000" font-family="Arial" font-size="10" lengthAdjust="spacing" textLength="114.8242" x="311.6104" y="373.4541">Content quality checks</text><rect fill="#FFFFFF" height="31.6406" rx="12.5" ry="12.5" style="stroke:#000000;stroke-width:1;" width="106.7676" x="315.6387" y="420.8125"/><text fill="#000000" font-family="Arial" font-size="10" lengthAdjust="spacing" textLength="86.7676" x="325.6387" y="440.0947">Profanity filtering</text><rect fill="#FFFFFF" height="31.6406" rx="12.5" ry="12.5" style="stroke:#000000;stroke-width:1;" width="128.3691" x="304.8379" y="487.4531"/><text fill="#000000" font-family="Arial" font-size="10" lengthAdjust="spacing" textLength="108.3691" x="314.8379" y="506.7354">Translation validation</text><rect fill="#FFFFFF" height="31.6406" rx="12.5" ry="12.5" style="stroke:#000000;stroke-width:1;" width="97.0898" x="467.9338" y="254.2109"/><text fill="#000000" font-family="Arial" font-size="10" lengthAdjust="spacing" textLength="77.0898" x="477.9338" y="273.4932">Documentation</text><rect fill="#FFFFFF" height="31.6406" rx="12.5" ry="12.5" style="stroke:#000000;stroke-width:1;" width="132.0703" x="450.4436" y="320.8516"/><text fill="#000000" font-family="Arial" font-size="10" lengthAdjust="spacing" textLength="112.0703" x="460.4436" y="340.1338">Spell checking (cspell)</text><rect fill="#FFFFFF" height="31.6406" rx="12.5" ry="12.5" style="stroke:#000000;stroke-width:1;" width="131.5479" x="450.7048" y="387.4922"/><text fill="#000000" font-family="Arial" font-size="10" lengthAdjust="spacing" textLength="111.5479" x="460.7048" y="406.7744">Documentation linting</text><rect fill="#FFFFFF" height="31.6406" rx="12.5" ry="12.5" style="stroke:#000000;stroke-width:1;" width="100.0098" x="466.4739" y="454.1328"/><text fill="#000000" font-family="Arial" font-size="10" lengthAdjust="spacing" textLength="80.0098" x="476.4739" y="473.415">Vale integration</text><rect fill="#000000" height="6" rx="2.5" ry="2.5" style="stroke:#000000;stroke-width:1;" width="588.5139" x="6" y="539.0938"/><polygon fill="#FFFFFF" points="257.5298,565.0938,338.9751,565.0938,350.9751,577.0938,338.9751,589.0938,257.5298,589.0938,245.5298,577.0938,257.5298,565.0938" style="stroke:#000000;stroke-width:1;"/><text fill="#000000" font-family="Arial" font-size="10" lengthAdjust="spacing" textLength="81.4453" x="257.5298" y="580.5557">All checks pass?</text><text fill="#000000" font-family="Arial" font-size="10" lengthAdjust="spacing" textLength="17.2803" x="228.2495" y="574.7354">yes</text><text fill="#000000" font-family="Arial" font-size="10" lengthAdjust="spacing" textLength="12.4561" x="350.9751" y="574.7354">no</text><rect fill="#FFFFFF" height="31.6406" rx="12.5" ry="12.5" style="stroke:#000000;stroke-width:1;" width="107.8467" x="175.2983" y="599.0938"/><text fill="#000000" font-family="Arial" font-size="10" lengthAdjust="spacing" textLength="87.8467" x="185.2983" y="618.376">Status: &#9989; Success</text><rect fill="#FFFFFF" height="31.6406" rx="12.5" ry="12.5" style="stroke:#000000;stroke-width:1;" width="118.2129" x="170.1152" y="650.7344"/><text fill="#000000" font-family="Arial" font-size="10" lengthAdjust="spacing" textLength="98.2129" x="180.1152" y="670.0166">PR ready for review</text><rect fill="#FFFFFF" height="31.6406" rx="12.5" ry="12.5" style="stroke:#000000;stroke-width:1;" width="97.5293" x="318.5186" y="599.0938"/><text fill="#000000" font-family="Arial" font-size="10" lengthAdjust="spacing" textLength="77.5293" x="328.5186" y="618.376">Status: &#10060; Failed</text><rect fill="#FFFFFF" height="31.6406" rx="12.5" ry="12.5" style="stroke:#000000;stroke-width:1;" width="112.5635" x="311.0015" y="650.7344"/><text fill="#000000" font-family="Arial" font-size="10" lengthAdjust="spacing" textLength="92.5635" x="321.0015" y="670.0166">Developer notified</text><rect fill="#FFFFFF" height="31.6406" rx="12.5" ry="12.5" style="stroke:#000000;stroke-width:1;" width="117.9102" x="308.3281" y="702.375"/><text fill="#000000" font-family="Arial" font-size="10" lengthAdjust="spacing" textLength="97.9102" x="318.3281" y="721.6572">Fix issues and retry</text><ellipse cx="367.2832" cy="765.0156" fill="none" rx="11" ry="11" style="stroke:#000000;stroke-width:1;"/><ellipse cx="367.2832" cy="765.0156" fill="#FFFFFF" rx="6" ry="6" style="stroke:#000000;stroke-width:1;"/><rect fill="#FFFFFF" height="31.6406" rx="12.5" ry="12.5" style="stroke:#000000;stroke-width:1;" width="123.8965" x="236.3042" y="796.0156"/><text fill="#000000" font-family="Arial" font-size="10" lengthAdjust="spacing" textLength="103.8965" x="246.3042" y="815.2979">Code review process</text><polygon fill="#FFFFFF" points="252.21,847.6563,344.2949,847.6563,356.2949,859.6563,344.2949,871.6563,252.21,871.6563,240.21,859.6563,252.21,847.6563" style="stroke:#000000;stroke-width:1;"/><text fill="#000000" font-family="Arial" font-size="10" lengthAdjust="spacing" textLength="92.085" x="252.21" y="863.1182">Review approved?</text><text fill="#000000" font-family="Arial" font-size="10" lengthAdjust="spacing" textLength="17.2803" x="222.9297" y="857.2979">yes</text><text fill="#000000" font-family="Arial" font-size="10" lengthAdjust="spacing" textLength="12.4561" x="356.2949" y="857.2979">no</text><rect fill="#FFFFFF" height="31.6406" rx="12.5" ry="12.5" style="stroke:#000000;stroke-width:1;" width="130.7129" x="156.3103" y="881.6563"/><text fill="#000000" font-family="Arial" font-size="10" lengthAdjust="spacing" textLength="110.7129" x="166.3103" y="900.9385">Merge to main branch</text><rect fill="#FFFFFF" height="31.6406" rx="12.5" ry="12.5" style="stroke:#000000;stroke-width:1;" width="125.3271" x="159.0032" y="933.2969"/><text fill="#000000" font-family="Arial" font-size="10" lengthAdjust="spacing" textLength="105.3271" x="169.0032" y="952.5791">Deploy to production</text><rect fill="#FFFFFF" height="31.6406" rx="12.5" ry="12.5" style="stroke:#000000;stroke-width:1;" width="135.1318" x="154.1008" y="984.9375"/><text fill="#000000" font-family="Arial" font-size="10" lengthAdjust="spacing" textLength="115.1318" x="164.1008" y="1004.2197">Update documentation</text><rect fill="#FFFFFF" height="31.6406" rx="12.5" ry="12.5" style="stroke:#000000;stroke-width:1;" width="106.2598" x="321.7083" y="881.6563"/><text fill="#000000" font-family="Arial" font-size="10" lengthAdjust="spacing" textLength="86.2598" x="331.7083" y="900.9385">Request changes</text><rect fill="#FFFFFF" height="31.6406" rx="12.5" ry="12.5" style="stroke:#000000;stroke-width:1;" width="131.2109" x="309.2327" y="933.2969"/><text fill="#000000" font-family="Arial" font-size="10" lengthAdjust="spacing" textLength="111.2109" x="319.2327" y="952.5791">Developer updates PR</text><rect fill="#FFFFFF" height="31.6406" rx="12.5" ry="12.5" style="stroke:#000000;stroke-width:1;" width="96.3477" x="326.6643" y="984.9375"/><text fill="#000000" font-family="Arial" font-size="10" lengthAdjust="spacing" textLength="76.3477" x="336.6643" y="1004.2197">Re-run pipeline</text><polygon fill="#FFFFFF" points="298.2524,1022.5781,310.2524,1034.5781,298.2524,1046.5781,286.2524,1034.5781,298.2524,1022.5781" style="stroke:#000000;stroke-width:1;"/><ellipse cx="298.2524" cy="1077.5781" fill="none" rx="11" ry="11" style="stroke:#000000;stroke-width:1;"/><ellipse cx="298.2524" cy="1077.5781" fill="#FFFFFF" rx="6" ry="6" style="stroke:#000000;stroke-width:1;"/><line style="stroke:#000000;stroke-width:1;" x1="298.2524" x2="298.2524" y1="71.6094" y2="91.6094"/><polygon fill="#000000" points="294.2524,81.6094,298.2524,91.6094,302.2524,81.6094,298.2524,85.6094" style="stroke:#000000;stroke-width:1;"/><line style="stroke:#000000;stroke-width:1;" x1="298.2524" x2="298.2524" y1="123.25" y2="143.25"/><polygon fill="#000000" points="294.2524,133.25,298.2524,143.25,302.2524,133.25,298.2524,137.25" style="stroke:#000000;stroke-width:1;"/><line style="stroke:#000000;stroke-width:1;" x1="73.1782" x2="73.1782" y1="285.8516" y2="320.8516"/><polygon fill="#000000" points="69.1782,310.8516,73.1782,320.8516,77.1782,310.8516,73.1782,314.8516" style="stroke:#000000;stroke-width:1;"/><line style="stroke:#000000;stroke-width:1;" x1="73.1782" x2="73.1782" y1="352.4922" y2="387.4922"/><polygon fill="#000000" points="69.1782,377.4922,73.1782,387.4922,77.1782,377.4922,73.1782,381.4922" style="stroke:#000000;stroke-width:1;"/><line style="stroke:#000000;stroke-width:1;" x1="73.1782" x2="73.1782" y1="419.1328" y2="454.1328"/><polygon fill="#000000" points="69.1782,444.1328,73.1782,454.1328,77.1782,444.1328,73.1782,448.1328" style="stroke:#000000;stroke-width:1;"/><line style="stroke:#000000;stroke-width:1;" x1="205.9834" x2="205.9834" y1="285.8516" y2="320.8516"/><polygon fill="#000000" points="201.9834,310.8516,205.9834,320.8516,209.9834,310.8516,205.9834,314.8516" style="stroke:#000000;stroke-width:1;"/><line style="stroke:#000000;stroke-width:1;" x1="205.9834" x2="205.9834" y1="352.4922" y2="387.4922"/><polygon fill="#000000" points="201.9834,377.4922,205.9834,387.4922,209.9834,377.4922,205.9834,381.4922" style="stroke:#000000;stroke-width:1;"/><line style="stroke:#000000;stroke-width:1;" x1="205.9834" x2="205.9834" y1="419.1328" y2="454.1328"/><polygon fill="#000000" points="201.9834,444.1328,205.9834,454.1328,209.9834,444.1328,205.9834,448.1328" style="stroke:#000000;stroke-width:1;"/><line style="stroke:#000000;stroke-width:1;" x1="369.0225" x2="369.0225" y1="252.5313" y2="287.5313"/><polygon fill="#000000" points="365.0225,277.5313,369.0225,287.5313,373.0225,277.5313,369.0225,281.5313" style="stroke:#000000;stroke-width:1;"/><line style="stroke:#000000;stroke-width:1;" x1="369.0225" x2="369.0225" y1="319.1719" y2="354.1719"/><polygon fill="#000000" points="365.0225,344.1719,369.0225,354.1719,373.0225,344.1719,369.0225,348.1719" style="stroke:#000000;stroke-width:1;"/><line style="stroke:#000000;stroke-width:1;" x1="369.0225" x2="369.0225" y1="385.8125" y2="420.8125"/><polygon fill="#000000" points="365.0225,410.8125,369.0225,420.8125,373.0225,410.8125,369.0225,414.8125" style="stroke:#000000;stroke-width:1;"/><line style="stroke:#000000;stroke-width:1;" x1="369.0225" x2="369.0225" y1="452.4531" y2="487.4531"/><polygon fill="#000000" points="365.0225,477.4531,369.0225,487.4531,373.0225,477.4531,369.0225,481.4531" style="stroke:#000000;stroke-width:1;"/><line style="stroke:#000000;stroke-width:1;" x1="516.4788" x2="516.4788" y1="285.8516" y2="320.8516"/><polygon fill="#000000" points="512.4788,310.8516,516.4788,320.8516,520.4788,310.8516,516.4788,314.8516" style="stroke:#000000;stroke-width:1;"/><line style="stroke:#000000;stroke-width:1;" x1="516.4788" x2="516.4788" y1="352.4922" y2="387.4922"/><polygon fill="#000000" points="512.4788,377.4922,516.4788,387.4922,520.4788,377.4922,516.4788,381.4922" style="stroke:#000000;stroke-width:1;"/><line style="stroke:#000000;stroke-width:1;" x1="516.4788" x2="516.4788" y1="419.1328" y2="454.1328"/><polygon fill="#000000" points="512.4788,444.1328,516.4788,454.1328,520.4788,444.1328,516.4788,448.1328" style="stroke:#000000;stroke-width:1;"/><line style="stroke:#000000;stroke-width:1;" x1="73.1782" x2="73.1782" y1="200.8906" y2="254.2109"/><polygon fill="#000000" points="69.1782,244.2109,73.1782,254.2109,77.1782,244.2109,73.1782,248.2109" style="stroke:#000000;stroke-width:1;"/><line style="stroke:#000000;stroke-width:1;" x1="205.9834" x2="205.9834" y1="200.8906" y2="254.2109"/><polygon fill="#000000" points="201.9834,244.2109,205.9834,254.2109,209.9834,244.2109,205.9834,248.2109" style="stroke:#000000;stroke-width:1;"/><line style="stroke:#000000;stroke-width:1;" x1="369.0225" x2="369.0225" y1="200.8906" y2="220.8906"/><polygon fill="#000000" points="365.0225,210.8906,369.0225,220.8906,373.0225,210.8906,369.0225,214.8906" style="stroke:#000000;stroke-width:1;"/><line style="stroke:#000000;stroke-width:1;" x1="516.4788" x2="516.4788" y1="200.8906" y2="254.2109"/><polygon fill="#000000" points="512.4788,244.2109,516.4788,254.2109,520.4788,244.2109,516.4788,248.2109" style="stroke:#000000;stroke-width:1;"/><line style="stroke:#000000;stroke-width:1;" x1="73.1782" x2="73.1782" y1="485.7734" y2="539.0938"/><polygon fill="#000000" points="69.1782,529.0938,73.1782,539.0938,77.1782,529.0938,73.1782,533.0938" style="stroke:#000000;stroke-width:1;"/><line style="stroke:#000000;stroke-width:1;" x1="205.9834" x2="205.9834" y1="485.7734" y2="539.0938"/><polygon fill="#000000" points="201.9834,529.0938,205.9834,539.0938,209.9834,529.0938,205.9834,533.0938" style="stroke:#000000;stroke-width:1;"/><line style="stroke:#000000;stroke-width:1;" x1="369.0225" x2="369.0225" y1="519.0938" y2="539.0938"/><polygon fill="#000000" points="365.0225,529.0938,369.0225,539.0938,373.0225,529.0938,369.0225,533.0938" style="stroke:#000000;stroke-width:1;"/><line style="stroke:#000000;stroke-width:1;" x1="516.4788" x2="516.4788" y1="485.7734" y2="539.0938"/><polygon fill="#000000" points="512.4788,529.0938,516.4788,539.0938,520.4788,529.0938,516.4788,533.0938" style="stroke:#000000;stroke-width:1;"/><line style="stroke:#000000;stroke-width:1;" x1="298.2524" x2="298.2524" y1="174.8906" y2="194.8906"/><polygon fill="#000000" points="294.2524,184.8906,298.2524,194.8906,302.2524,184.8906,298.2524,188.8906" style="stroke:#000000;stroke-width:1;"/><line style="stroke:#000000;stroke-width:1;" x1="229.2217" x2="229.2217" y1="630.7344" y2="650.7344"/><polygon fill="#000000" points="225.2217,640.7344,229.2217,650.7344,233.2217,640.7344,229.2217,644.7344" style="stroke:#000000;stroke-width:1;"/><line style="stroke:#000000;stroke-width:1;" x1="367.2832" x2="367.2832" y1="630.7344" y2="650.7344"/><polygon fill="#000000" points="363.2832,640.7344,367.2832,650.7344,371.2832,640.7344,367.2832,644.7344" style="stroke:#000000;stroke-width:1;"/><line style="stroke:#000000;stroke-width:1;" x1="367.2832" x2="367.2832" y1="682.375" y2="702.375"/><polygon fill="#000000" points="363.2832,692.375,367.2832,702.375,371.2832,692.375,367.2832,696.375" style="stroke:#000000;stroke-width:1;"/><line style="stroke:#000000;stroke-width:1;" x1="367.2832" x2="367.2832" y1="734.0156" y2="754.0156"/><polygon fill="#000000" points="363.2832,744.0156,367.2832,754.0156,371.2832,744.0156,367.2832,748.0156" style="stroke:#000000;stroke-width:1;"/><line style="stroke:#000000;stroke-width:1;" x1="245.5298" x2="229.2217" y1="577.0938" y2="577.0938"/><line style="stroke:#000000;stroke-width:1;" x1="229.2217" x2="229.2217" y1="577.0938" y2="599.0938"/><polygon fill="#000000" points="225.2217,589.0938,229.2217,599.0938,233.2217,589.0938,229.2217,593.0938" style="stroke:#000000;stroke-width:1;"/><line style="stroke:#000000;stroke-width:1;" x1="350.9751" x2="367.2832" y1="577.0938" y2="577.0938"/><line style="stroke:#000000;stroke-width:1;" x1="367.2832" x2="367.2832" y1="577.0938" y2="599.0938"/><polygon fill="#000000" points="363.2832,589.0938,367.2832,599.0938,371.2832,589.0938,367.2832,593.0938" style="stroke:#000000;stroke-width:1;"/><line style="stroke:#000000;stroke-width:1;" x1="229.2217" x2="229.2217" y1="682.375" y2="781.0156"/><line style="stroke:#000000;stroke-width:1;" x1="229.2217" x2="298.2524" y1="781.0156" y2="781.0156"/><line style="stroke:#000000;stroke-width:1;" x1="298.2524" x2="298.2524" y1="781.0156" y2="796.0156"/><polygon fill="#000000" points="294.2524,786.0156,298.2524,796.0156,302.2524,786.0156,298.2524,790.0156" style="stroke:#000000;stroke-width:1;"/><line style="stroke:#000000;stroke-width:1;" x1="298.2524" x2="298.2524" y1="545.0938" y2="565.0938"/><polygon fill="#000000" points="294.2524,555.0938,298.2524,565.0938,302.2524,555.0938,298.2524,559.0938" style="stroke:#000000;stroke-width:1;"/><line style="stroke:#000000;stroke-width:1;" x1="221.6667" x2="221.6667" y1="913.2969" y2="933.2969"/><polygon fill="#000000" points="217.6667,923.2969,221.6667,933.2969,225.6667,923.2969,221.6667,927.2969" style="stroke:#000000;stroke-width:1;"/><line style="stroke:#000000;stroke-width:1;" x1="221.6667" x2="221.6667" y1="964.9375" y2="984.9375"/><polygon fill="#000000" points="217.6667,974.9375,221.6667,984.9375,225.6667,974.9375,221.6667,978.9375" style="stroke:#000000;stroke-width:1;"/><line style="stroke:#000000;stroke-width:1;" x1="374.8381" x2="374.8381" y1="913.2969" y2="933.2969"/><polygon fill="#000000" points="370.8381,923.2969,374.8381,933.2969,378.8381,923.2969,374.8381,927.2969" style="stroke:#000000;stroke-width:1;"/><line style="stroke:#000000;stroke-width:1;" x1="374.8381" x2="374.8381" y1="964.9375" y2="984.9375"/><polygon fill="#000000" points="370.8381,974.9375,374.8381,984.9375,378.8381,974.9375,374.8381,978.9375" style="stroke:#000000;stroke-width:1;"/><line style="stroke:#000000;stroke-width:1;" x1="240.21" x2="221.6667" y1="859.6563" y2="859.6563"/><line style="stroke:#000000;stroke-width:1;" x1="221.6667" x2="221.6667" y1="859.6563" y2="881.6563"/><polygon fill="#000000" points="217.6667,871.6563,221.6667,881.6563,225.6667,871.6563,221.6667,875.6563" style="stroke:#000000;stroke-width:1;"/><line style="stroke:#000000;stroke-width:1;" x1="356.2949" x2="374.8381" y1="859.6563" y2="859.6563"/><line style="stroke:#000000;stroke-width:1;" x1="374.8381" x2="374.8381" y1="859.6563" y2="881.6563"/><polygon fill="#000000" points="370.8381,871.6563,374.8381,881.6563,378.8381,871.6563,374.8381,875.6563" style="stroke:#000000;stroke-width:1;"/><line style="stroke:#000000;stroke-width:1;" x1="221.6667" x2="221.6667" y1="1016.5781" y2="1034.5781"/><line style="stroke:#000000;stroke-width:1;" x1="221.6667" x2="286.2524" y1="1034.5781" y2="1034.5781"/><polygon fill="#000000" points="276.2524,1030.5781,286.2524,1034.5781,276.2524,1038.5781,280.2524,1034.5781" style="stroke:#000000;stroke-width:1;"/><line style="stroke:#000000;stroke-width:1;" x1="374.8381" x2="374.8381" y1="1016.5781" y2="1034.5781"/><line style="stroke:#000000;stroke-width:1;" x1="374.8381" x2="310.2524" y1="1034.5781" y2="1034.5781"/><polygon fill="#000000" points="320.2524,1030.5781,310.2524,1034.5781,320.2524,1038.5781,316.2524,1034.5781" style="stroke:#000000;stroke-width:1;"/><line style="stroke:#000000;stroke-width:1;" x1="298.2524" x2="298.2524" y1="827.6563" y2="847.6563"/><polygon fill="#000000" points="294.2524,837.6563,298.2524,847.6563,302.2524,837.6563,298.2524,841.6563" style="stroke:#000000;stroke-width:1;"/><line style="stroke:#000000;stroke-width:1;" x1="298.2524" x2="298.2524" y1="1046.5781" y2="1066.5781"/><polygon fill="#000000" points="294.2524,1056.5781,298.2524,1066.5781,302.2524,1056.5781,298.2524,1060.5781" style="stroke:#000000;stroke-width:1;"/><!--SRC=[RLFBajCm4BpxAuRYaXmeu9eSg5H2zW4i8LxWhCXZPogAf9L6OSsT6vy0FyUNCBAJtJN19xj7qzEjQJ_ZBUuHl55aYxWZwrLGUzWelMk2IxQQE-C2F5zspvCJ5TOg6LuwopTA66Q1bFb_lQJl2AzV5GKJ6uIlBbJnwXtChrxE5x0YZuOi5aLa5RWe9Wiye74U0-Y0YZ72QZqL_8BuCcrWffcSZS21cWO3LbAhNTWL09CITGh4BPHQMKkscMRq8ezLkmXHq0wv3Qck3LwwvX5RAMOC5lQAzRPhpQoWcdmpKf-x2k5JKaRuUvBMOwa3UGRjzfwCoiAwqjloFLc1jwXtiKEkCJ8aImnYYECvkMMKZYz2NptoN9SVRo2sbjKz78QbKyTTh-Zfh5LmjR8PhCc8fzCzt0PbOwzom3QKid0wxONvSLGf6pBz0A62aOuP64_FJeCiaa_Jn0g2V6CJZbHeA-WsLL0Dezc9Cu9NCRuPWqJHmgZ5EEwc2cUA4_ZpwmUKIMkCHtTha5XKRQQIjmFXDw4s4M5atR3pzqzOAZ8v8bdgGwwiOwhf22_f7YZ693bJ8Z0WXsw_aPtFagcMx7NBxuU13wuNarsiUqnvGGzOdRduWA51O2Un8WiRsO3U7jLuuzfSaSugwOVR_knbBmZLS0q3WskyIpbFUgjiW_4VTwaZwF-Qxl2Ba2puutysFNdA_lu2]--></g></svg>